<svg height="124.27419" width="169.2068" xmlns="http://www.w3.org/2000/svg"><g transform="translate(-2286.6612 -2433.3806)"><g fill="#9ade00" opacity=".534694" transform="matrix(.00842782 .12001216 -.17984691 .0056239 2518.6432 2255.1454)"><path d="m1676.8473 1045.7054c74.9938-15.6677 153.636-22.21 228.7795-3.7721 56.8959 11.3809 112.9258 31.5869 171.4799 31.6161 24.5182-.7691 48.8479-5.5567 72.0223-13.537-4.6312 17.9707-9.2624 35.9414-13.8936 53.9121-59.7655 19.2688-123.3746 8.6124-182.6139-6.9597-65.5991-16.0045-133.264-33.1715-201.2002-22.5409-27.2127 3.2419-56.4605 3.9015-81.2605 15.7157 1.7865-17.9367 4.6115-36.3295 6.6865-54.4342z"/><path d="m2093.3175 1015.8719c22.9552 16.4633 39.8034 42.923 68.9056 49.8114 14.93 5.7705 40.4203-1.4217 24.6913 18.9978-5.4941 11.9552-10.9883 23.9104-16.4824 35.8656-40.6101-2.8567-77.1538-25.4093-103.421-55.6753-7.2339-7.3405-10.0769-2.2579-3.1909-9.9688 9.8322-13.0103 19.6661-26.0202 29.4974-39.0307z"/><path d="m2071.2844 1112.0822c1.4295-2.6833-43.3601 24.8205-16.0065 8.3463 39.1694-23.2745 81.1748-44.554 127.3056-48.2633 18.9988-7.9151 7.8339 8.4089 5.1657 17.6185-4.5466 10.8832-7.5915 23.5947-13.0411 33.3786-38.6425 3.747-73.3117 22.5421-106.3312 41.6547 7.8591-4.5977 41.6415-24.0904 19.3483-11.0517-12.2202 8.0833-31.3627 21.3716-22.8196-1.3626 2.1262-13.4402 4.2526-26.8803 6.3788-40.3205z"/></g><path d="m2326.5276 2435.4141c-2.8371-.2199-6.1622-.1081-8.7986-.1359 2.3258-1.7308.8376 2.29 1.2506 3.5329-.4738 9.0438-.7551 18.1273-.5118 27.1721-.6983.1343 1.8917-.097 2.8831 0 1.7646-.0002 3.5286.025 5.2934.016.9746 2.2551-1.0841 1.7126-2.5532 1.7139-2.6924-.3295-5.7813.7052-8.1681-.7906-1.0726-2.2206-.2035-4.9404-.4815-7.3494-.1944-8.3986.5748-16.7868.6144-25.1701 1.7407-1.5306 4.4551-.5853 6.6721-.8479 1.6634.3614 5.2895-1.0188 3.7996 1.8592z" fill="#0169c9" stroke="#636466" stroke-linejoin="round" stroke-width=".142721"/><path d="m2408.0169 2435.2986c2.9526-.1734 5.9112-.077 8.8671-.099-.6831.3071-1.5682-1.2512-1.2824.085-.3303 4.6764-.1059 9.3624-.021 14.043-.084 5.1611-.3558 10.3185-.5027 15.4768.1561.5941-.5366 1.7.09 1.0893-2.7954-.022-5.5941.052-8.3865-.06-.067.5706-.1313 1.1414-.1973 1.712 2.918.1132 5.8422.039 8.7632.059 1.3053.073 2.7694-.7908 2.6737-2.2478.1059-5.6906.4985-11.3777.498-17.072-.1329-4.3325-.2625-8.6721.029-13.0012.3496-1.2529-.8876-1.9815-1.9847-1.8055-2.9626.026-5.9284-.074-8.8874.107.1179.5689.2027 1.1599.3401 1.7155z" fill="#0169c9" stroke="#636466" stroke-linejoin="round" stroke-width=".142721"/><text fill="#fd3301" font-family="Comic Sans MS" font-size="23.910938" font-weight="bold" stroke-width="1.1" x="2333.4951" y="2459.4028"><tspan x="2333.4951" y="2459.4028">A</tspan></text><text fill="#fd3301" font-family="Comic Sans MS" font-size="23.910938" font-weight="bold" stroke-width="1.1" x="2382.3447" y="2459.4028"><tspan x="2382.3447" y="2459.4028">I</tspan></text><g stroke-linejoin="round"><path d="m2363.9048 2436.1157v32.037" fill="none" stroke="#0169c9" stroke-width="1.836659"/><path d="m2325.4913 2524.9161c-2.8372-.2168-6.162-.1081-8.7984-.1343 2.2842-1.7265.8686 2.1139 1.2507 3.3415-.4545 9.108-.7634 18.2547-.5117 27.3635-.7022.1344 1.892-.097 2.8813 0 1.7647-.0002 3.5286.025 5.2935.016.9747 2.255-1.0843 1.7125-2.5534 1.7139-2.6924-.3295-5.7813.7051-8.1679-.7908-1.0726-2.2206-.2035-4.9403-.4815-7.3494-.2017-8.3987.5518-16.7867.5992-25.1701 1.7402-1.5306 4.4542-.5852 6.6708-.8478 1.6833.3598 5.2587-1.0159 3.8174 1.8577z" fill="#0169c9" stroke="#636466" stroke-width=".142721"/><path d="m2407.977 2524.8007c2.8472-.1743 6.1734-.076 8.8035-.099-2.5452-1.6982-.7808 3.6428-1.3991 5.0863.2481 8.5472.092 17.1561-.4787 25.6613.7489-.043-2.2176-.08-3.1732-.055-1.6568 0-3.3139.016-4.9681-.06-1.0488 2.1996 1.0197 1.7815 2.4928 1.7723 2.703-.2954 5.7799.6954 8.194-.7492 1.2342-2.3769.3122-5.3708.7564-7.9668.5808-8.1765-.064-16.3749.2813-24.547-1.5609-1.5302-4.1255-.6116-6.1806-.8652-1.6441.4372-5.7973-1.2006-4.3283 1.823z" fill="#0169c9" stroke="#636466" stroke-width=".142721"/></g><text fill="#fd3301" font-family="Comic Sans MS" font-size="23.910938" font-weight="bold" stroke-width="1.1" x="2333.4553" y="2548.9045"><tspan x="2333.4553" y="2548.9045">I</tspan></text><path d="m2363.8648 2525.6177v32.0371" fill="none" stroke="#0169c9" stroke-linejoin="round" stroke-width="1.836659"/><g fill="#fd3301" font-family="Comic Sans MS" font-weight="bold" stroke-width="1.1" transform="matrix(.4981445 0 0 .4981445 1070.9484 1871.8469)"><text font-size="36" x="2658.7588" y="1339.7401"><tspan x="2658.7588" y="1339.7401">1</tspan></text><text font-size="48" x="2615.2903" y="1358.999"><tspan x="2615.2903" y="1358.999">A</tspan></text><text font-size="36" x="2642.4407" y="1336.7803"><tspan x="2642.4407" y="1336.7803">-</tspan></text></g><g fill="#9ade00" opacity=".534694" transform="matrix(.00842782 .12001216 -.17984691 .0056239 2568.0654 2255.1454)"><path d="m1676.8473 1045.7054c74.9938-15.6677 153.636-22.21 228.7795-3.7721 56.8959 11.3809 112.9258 31.5869 171.4799 31.6161 24.5182-.7691 48.8479-5.5567 72.0223-13.537-4.6312 17.9707-9.2624 35.9414-13.8936 53.9121-59.7655 19.2688-123.3746 8.6124-182.6139-6.9597-65.5991-16.0045-133.264-33.1715-201.2002-22.5409-27.2127 3.2419-56.4605 3.9015-81.2605 15.7157 1.7865-17.9367 4.6115-36.3295 6.6865-54.4342z"/><path d="m2093.3175 1015.8719c22.9552 16.4633 39.8034 42.923 68.9056 49.8114 14.93 5.7705 40.4203-1.4217 24.6913 18.9978-5.4941 11.9552-10.9883 23.9104-16.4824 35.8656-40.6101-2.8567-77.1538-25.4093-103.421-55.6753-7.2339-7.3405-10.0769-2.2579-3.1909-9.9688 9.8322-13.0103 19.6661-26.0202 29.4974-39.0307z"/><path d="m2071.2844 1112.0822c1.4295-2.6833-43.3601 24.8205-16.0065 8.3463 39.1694-23.2745 81.1748-44.554 127.3056-48.2633 18.9988-7.9151 7.8339 8.4089 5.1657 17.6185-4.5466 10.8832-7.5915 23.5947-13.0411 33.3786-38.6425 3.747-73.3117 22.5421-106.3312 41.6547 7.8591-4.5977 41.6415-24.0904 19.3483-11.0517-12.2202 8.0833-31.3627 21.3716-22.8196-1.3626 2.1262-13.4402 4.2526-26.8803 6.3788-40.3205z"/></g><text style="font-style:italic;font-size:12.428647;font-family:Comic Sans MS;letter-spacing:0;word-spacing:0;fill:#009100" x="2329.0652" y="2496.0847"><tspan x="2329.0652" y="2496.0847">“基本行运算”</tspan></text></g></svg>